<svg xmlns="http://www.w3.org/2000/svg" width="256" height="256" viewBox="0 0 256 256" role="img" aria-label="Torus Election GUI icon">
  <rect width="256" height="256" rx="48" fill="#0f2341"/>
  <g fill="none" stroke="#7fc7ff" stroke-width="10" stroke-linecap="round">
    <path d="M72 82h112"/>
    <path d="M72 128h112"/>
    <path d="M72 174h112"/>
    <path d="M82 72v112"/>
    <path d="M128 72v112"/>
    <path d="M174 72v112"/>
    <path d="M72 82c-26 14-26 78 0 92"/>
    <path d="M184 82c26 14 26 78 0 92"/>
  </g>
  <g>
    <circle cx="82" cy="82" r="17" fill="#e6f5ff"/>
    <circle cx="128" cy="82" r="17" fill="#e6f5ff"/>
    <circle cx="174" cy="82" r="17" fill="#ffd76c"/>
    <circle cx="82" cy="128" r="17" fill="#e6f5ff"/>
    <circle cx="128" cy="128" r="20" fill="#a7eba7"/>
    <circle cx="174" cy="128" r="17" fill="#e6f5ff"/>
    <circle cx="82" cy="174" r="17" fill="#e6f5ff"/>
    <circle cx="128" cy="174" r="17" fill="#e6f5ff"/>
    <circle cx="174" cy="174" r="17" fill="#ffaaaa"/>
  </g>
  <path d="M128 106l8 14 16 3-11 12 2 16-15-7-15 7 2-16-11-12 16-3z" fill="#0f8b2e"/>
  <circle cx="128" cy="128" r="53" fill="none" stroke="#ffffff" stroke-width="6" opacity="0.24"/>
</svg>
